<svg width="189" height="30" viewBox="0 0 189 30" fill="none" xmlns="http://www.w3.org/2000/svg">
<path d="M20.2645 0.68V7.72H9.14453V11.64H17.1445V18.32H9.14453V29H0.264526V0.68H20.2645ZM42.6323 24.72H33.1923L31.7923 29H22.4723L32.8323 0.68H43.0723L53.3923 29H44.0323L42.6323 24.72ZM40.4723 18.04L37.9123 10.16L35.3523 18.04H40.4723ZM67.6898 29.28C64.3032 29.28 61.5032 28.4933 59.2898 26.92C57.1032 25.32 55.9165 22.9867 55.7298 19.92H65.1698C65.3032 21.5467 66.0232 22.36 67.3298 22.36C67.8098 22.36 68.2098 22.2533 68.5298 22.04C68.8765 21.8 69.0498 21.44 69.0498 20.96C69.0498 20.2933 68.6898 19.76 67.9698 19.36C67.2498 18.9333 66.1298 18.4533 64.6098 17.92C62.7965 17.28 61.2898 16.6533 60.0898 16.04C58.9165 15.4267 57.9032 14.5333 57.0498 13.36C56.1965 12.1867 55.7832 10.68 55.8098 8.84C55.8098 7 56.2765 5.44 57.2098 4.16C58.1698 2.85333 59.4632 1.86667 61.0898 1.2C62.7432 0.533332 64.5965 0.199999 66.6498 0.199999C70.1165 0.199999 72.8632 0.999999 74.8898 2.6C76.9432 4.2 78.0232 6.45333 78.1298 9.36H68.5698C68.5432 8.56 68.3432 7.98667 67.9698 7.64C67.5965 7.29333 67.1432 7.12 66.6098 7.12C66.2365 7.12 65.9298 7.25333 65.6898 7.52C65.4498 7.76 65.3298 8.10667 65.3298 8.56C65.3298 9.2 65.6765 9.73333 66.3698 10.16C67.0898 10.56 68.2232 11.0533 69.7698 11.64C71.5565 12.3067 73.0232 12.9467 74.1698 13.56C75.3432 14.1733 76.3565 15.0267 77.2098 16.12C78.0632 17.2133 78.4898 18.5867 78.4898 20.24C78.4898 21.9733 78.0632 23.5333 77.2098 24.92C76.3565 26.28 75.1165 27.3467 73.4898 28.12C71.8632 28.8933 69.9298 29.28 67.6898 29.28ZM109.01 0.68V29H100.13V17.96H91.6898V29H82.8098V0.68H91.6898V10.88H100.13V0.68H109.01ZM123.085 0.68V29H114.205V0.68H123.085ZM142.096 29.28C139.429 29.28 136.976 28.6533 134.736 27.4C132.522 26.1467 130.762 24.4133 129.456 22.2C128.149 19.9867 127.496 17.4933 127.496 14.72C127.496 11.9467 128.149 9.45333 129.456 7.24C130.762 5.02667 132.522 3.30667 134.736 2.08C136.976 0.826665 139.429 0.199999 142.096 0.199999C144.762 0.199999 147.202 0.826665 149.416 2.08C151.629 3.30667 153.376 5.02667 154.656 7.24C155.962 9.45333 156.616 11.9467 156.616 14.72C156.616 17.4933 155.962 19.9867 154.656 22.2C153.376 24.4133 151.616 26.1467 149.376 27.4C147.162 28.6533 144.736 29.28 142.096 29.28ZM142.096 21C143.856 21 145.216 20.44 146.176 19.32C147.136 18.1733 147.616 16.64 147.616 14.72C147.616 12.7733 147.136 11.24 146.176 10.12C145.216 8.97333 143.856 8.4 142.096 8.4C140.309 8.4 138.936 8.97333 137.976 10.12C137.016 11.24 136.536 12.7733 136.536 14.72C136.536 16.64 137.016 18.1733 137.976 19.32C138.936 20.44 140.309 21 142.096 21ZM188.179 29H179.299L169.899 14.76V29H161.019V0.68H169.899L179.299 15.16V0.68H188.179V29Z" fill="black"/>
</svg>
